<svg width="12" height="12" viewBox="0 0 12 12" fill="none" xmlns="http://www.w3.org/2000/svg">
<circle cx="6" cy="6" r="5.5" transform="rotate(-180 6 6)" fill="#1474C4" stroke="white"/>
<g clip-path="url(#clip0_9032_5196)">
<path d="M3.3457 5.41101C3.68337 4.18751 4.80653 3.33301 6.07703 3.33301C6.83787 3.33301 7.55437 3.64634 8.07703 4.16584V3.66634C8.07703 3.48234 8.22637 3.33301 8.41037 3.33301C8.59437 3.33301 8.7437 3.48234 8.7437 3.66634V5.33301C8.7437 5.51701 8.59437 5.66634 8.41037 5.66634H6.91037C6.72637 5.66634 6.57703 5.51701 6.57703 5.33301C6.57703 5.14901 6.72637 4.99967 6.91037 4.99967H7.90087C7.5072 4.38884 6.81937 3.99967 6.07703 3.99967C5.10537 3.99967 4.24653 4.65301 3.9882 5.58834C3.94753 5.73617 3.8132 5.83301 3.66703 5.83301C3.6377 5.83301 3.60787 5.82917 3.5782 5.82084C3.40087 5.77184 3.2967 5.58834 3.34553 5.41084L3.3457 5.41101ZM8.57587 6.34501C8.39837 6.29551 8.2147 6.40017 8.16587 6.57767C7.90753 7.51301 7.0487 8.16634 6.07703 8.16634C5.3347 8.16634 4.64687 7.77717 4.2532 7.16634H5.2437C5.4277 7.16634 5.57703 7.01701 5.57703 6.83301C5.57703 6.64901 5.4277 6.49967 5.2437 6.49967H3.7437C3.5597 6.49967 3.41037 6.64901 3.41037 6.83301V8.49967C3.41037 8.68367 3.5597 8.83301 3.7437 8.83301C3.9277 8.83301 4.07703 8.68367 4.07703 8.49967V8.00017C4.5997 8.51967 5.3162 8.83301 6.07703 8.83301C7.34753 8.83301 8.4707 7.97851 8.80853 6.75501C8.85753 6.57751 8.75337 6.39401 8.57587 6.34501Z" fill="white"/>
</g>
<defs>
<clipPath id="clip0_9032_5196">
<rect width="6" height="6" fill="white" transform="translate(3 3)"/>
</clipPath>
</defs>
</svg>
